<svg xmlns="http://www.w3.org/2000/svg" version="1.1" xmlns:xlink="http://www.w3.org/1999/xlink" xmlns:svgjs="http://svgjs.dev/svgjs" width="1000" height="1000" viewBox="0 0 1000 1000"><rect width="1000" height="1000" fill="#8e169e"></rect><g transform="matrix(0.7,0,0,0.7,150,150)"><svg viewBox="0 0 280 280" data-background-color="#8e169e" preserveAspectRatio="xMidYMid meet" height="1000" width="1000" xmlns="http://www.w3.org/2000/svg" xmlns:xlink="http://www.w3.org/1999/xlink"><g id="tight-bounds" transform="matrix(1,0,0,1,0,0)"><svg viewBox="0 0 280 280" height="280" width="280"><g><svg viewBox="0 0 280 280" height="280" width="280"><g><svg viewBox="0 0 280 280" height="280" width="280"><g id="textblocktransform"><svg viewBox="0 0 280 280" height="280" width="280" id="textblock"><g><svg viewBox="0 0 280 280" height="280" width="280"><g transform="matrix(1,0,0,1,74.00336708925556,74.28027253894084)"><svg viewBox="0 0 131.99326582148888 131.43945492211833" height="131.43945492211833" width="131.99326582148888"><g><svg xmlns="http://www.w3.org/2000/svg" xmlns:xlink="http://www.w3.org/1999/xlink" version="1.1" x="0" y="0" viewBox="3.9019999504089355 4.074999809265137 91.76000213623047 91.375" enable-background="new 0 0 100 100" xml:space="preserve" height="131.43945492211833" width="131.99326582148888" class="icon-o-0" data-fill-palette-color="accent" id="o-0"><polygon points="30.917,82.868 83.112,65.066 41.654,31.079 " fill="#ffffff" data-fill-palette-color="accent"></polygon><polygon points="80.891,14.657 82.146,14.141 34.306,4.075 41.663,29.509 " fill="#ffffff" data-fill-palette-color="accent"></polygon><polygon points="83.625,14.614 82.001,15.282 82.009,15.303 42.318,30.33 83.625,64.193 " fill="#ffffff" data-fill-palette-color="accent"></polygon><polygon points="33.408,4.573 4.484,43.216 40.723,29.86 " fill="#ffffff" data-fill-palette-color="accent"></polygon><polygon points="71.796,87.147 93.758,57.799 84.512,65.579 " fill="#ffffff" data-fill-palette-color="accent"></polygon><polygon points="23.979,83.508 50.157,91.115 30.145,84.117 " fill="#ffffff" data-fill-palette-color="accent"></polygon><polygon points="84.625,17.348 84.625,64.176 95.662,54.889 " fill="#ffffff" data-fill-palette-color="accent"></polygon><polygon points="31.782,83.631 65.583,95.45 66.325,94.458 83.009,66.159 " fill="#ffffff" data-fill-palette-color="accent"></polygon><polygon points="5.269,48.243 19.277,82.037 29.227,83.021 " fill="#ffffff" data-fill-palette-color="accent"></polygon><polygon points="40.66,30.949 3.902,44.497 29.998,82.378 " fill="#ffffff" data-fill-palette-color="accent"></polygon></svg></g></svg></g><g><path d="M1.811 97.047v0c0.426-1.262 0.864-2.538 1.313-3.828 0.45-1.29 0.901-2.564 1.355-3.824 0.454-1.26 0.924-2.443 1.411-3.55v0l2.887 1.199-3.366 9.972c-0.297 0.88-0.319 1.586-0.066 2.118 0.249 0.524 0.801 0.931 1.655 1.219v0l21.149 7.139-1.311 3.882-21.885-7.388c-1.549-0.523-2.595-1.409-3.139-2.657-0.544-1.249-0.545-2.676-0.003-4.282zM14.88 106.602l-3.03-1.023 4.805-14.236 3.031 1.023z" fill="#ffffff" data-fill-palette-color="primary"></path><path d="M17.118 65.128l2.307-3.325 18.306 12.702c0.713 0.495 1.368 0.683 1.966 0.565 0.597-0.118 1.153-0.547 1.667-1.287v0l5.769-8.316 2.711 1.635c-0.933 1.58-1.925 3.152-2.977 4.715-1.052 1.563-2.114 3.118-3.188 4.665v0c-1.181 1.702-2.449 2.632-3.803 2.791-1.354 0.158-2.672-0.208-3.954-1.099v0z" fill="#ffffff" data-fill-palette-color="primary"></path><path d="M50.707 28.254v0c1.628-1.293 3.166-2.201 4.615-2.724 1.449-0.523 2.865-0.617 4.248-0.282 1.379 0.33 2.81 1.11 4.293 2.338 1.477 1.232 3.082 2.939 4.814 5.119v0c1.716 2.16 3.011 4.104 3.885 5.832 0.869 1.732 1.309 3.308 1.318 4.726 0.014 1.424-0.398 2.782-1.235 4.075-0.838 1.293-2.07 2.585-3.698 3.878v0c-1.622 1.289-3.158 2.195-4.607 2.718-1.449 0.523-2.87 0.622-4.264 0.294-1.39-0.322-2.836-1.098-4.336-2.328-1.501-1.23-3.11-2.925-4.826-5.085v0c-1.732-2.181-3.024-4.136-3.874-5.867-0.85-1.73-1.275-3.309-1.274-4.735-0.003-1.432 0.414-2.794 1.251-4.087 0.838-1.293 2.068-2.583 3.69-3.872zM52.923 31.043v0c-1.385 1.1-2.27 2.242-2.655 3.424-0.394 1.181-0.259 2.53 0.406 4.046 0.665 1.508 1.881 3.373 3.646 5.597v0c1.749 2.202 3.287 3.803 4.613 4.802 1.336 1.001 2.624 1.443 3.863 1.326 1.238-0.107 2.55-0.711 3.935-1.811v0c1.391-1.105 2.273-2.244 2.647-3.417 0.383-1.172 0.244-2.526-0.418-4.063-0.663-1.527-1.869-3.391-3.618-5.593v0c-1.766-2.223-3.313-3.825-4.642-4.805-1.338-0.982-2.622-1.418-3.85-1.311-1.227 0.099-2.537 0.7-3.927 1.805z" fill="#ffffff" data-fill-palette-color="primary"></path><path d="M112.48 1.228l4.087-1.228 2.492 27.51c0.018 0.339-0.072 0.661-0.268 0.966-0.198 0.298-0.494 0.507-0.887 0.625v0l-4.233 1.272c-0.393 0.118-0.758 0.108-1.094-0.03-0.345-0.142-0.594-0.376-0.748-0.702v0l-9.963-18.639c-0.26-0.491-0.522-0.988-0.785-1.492-0.272-0.508-0.534-0.995-0.787-1.46v0l-0.782 0.236c0.046 0.527 0.107 1.081 0.183 1.662 0.068 0.577 0.125 1.129 0.171 1.656v0l1.999 21.031c0.025 0.365-0.063 0.7-0.267 1.007-0.211 0.302-0.5 0.509-0.867 0.619v0l-4.272 1.283c-0.393 0.118-0.761 0.109-1.104-0.026-0.338-0.144-0.581-0.366-0.727-0.667v0l-13.083-24.328 4.078-1.225 10.173 19.481c0.26 0.491 0.515 1.011 0.764 1.561 0.25 0.55 0.521 1.125 0.814 1.726v0l0.87-0.261c-0.079-0.637-0.153-1.257-0.222-1.862-0.069-0.604-0.131-1.197-0.187-1.777v0l-1.881-20.603c-0.052-0.385 0.022-0.734 0.223-1.047 0.205-0.322 0.505-0.541 0.898-0.659v0l3.962-1.191c0.387-0.116 0.748-0.095 1.084 0.065 0.334 0.153 0.595 0.401 0.782 0.744v0l9.796 18.225c0.309 0.56 0.593 1.107 0.851 1.641 0.259 0.533 0.501 1.082 0.727 1.647v0l0.985-0.297c-0.123-0.595-0.232-1.191-0.326-1.788-0.095-0.597-0.17-1.185-0.225-1.765v0z" fill="#ffffff" data-fill-palette-color="primary"></path><path d="M175.779 2.914v0c2.284 0.543 4.049 1.176 5.295 1.901 1.244 0.731 2.04 1.688 2.388 2.87 0.357 1.177 0.311 2.708-0.137 4.593v0c-0.466 1.964-1.19 3.379-2.17 4.245-0.972 0.862-2.302 1.175-3.988 0.94v0l-0.037 0.157c1.997 0.675 3.26 1.732 3.789 3.172 0.528 1.446 0.53 3.272 0.006 5.478v0c-0.448 1.885-1.092 3.274-1.933 4.166-0.849 0.898-1.971 1.399-3.365 1.503-1.399 0.096-3.162-0.108-5.289-0.613v0c-1.617-0.384-3.003-0.72-4.158-1.008-1.155-0.288-2.218-0.575-3.188-0.861-0.969-0.286-1.975-0.594-3.016-0.924v0l1.287-2.93c0.576 0.165 1.699 0.459 3.369 0.883 1.663 0.423 3.61 0.899 5.842 1.429v0c1.381 0.328 2.5 0.466 3.355 0.413 0.854-0.046 1.531-0.362 2.03-0.949 0.504-0.579 0.907-1.506 1.211-2.782v0c0.328-1.381 0.399-2.481 0.213-3.3-0.181-0.81-0.647-1.467-1.399-1.971-0.752-0.504-1.854-0.942-3.307-1.314v0l-9.042-2.148 0.69-2.906 9.003 2.138c1.283 0.277 2.322 0.385 3.117 0.326 0.804-0.065 1.44-0.384 1.908-0.957 0.476-0.578 0.853-1.45 1.129-2.616v0c0.284-1.198 0.329-2.155 0.133-2.872-0.188-0.722-0.668-1.293-1.44-1.711-0.77-0.425-1.859-0.805-3.266-1.139v0c-1.329-0.316-2.523-0.599-3.584-0.851-1.067-0.253-1.998-0.468-2.793-0.643-0.802-0.177-1.5-0.308-2.095-0.394v0l0.168-3.196c0.98 0.122 1.907 0.266 2.781 0.433 0.873 0.166 1.822 0.364 2.846 0.593 1.024 0.229 2.24 0.511 3.647 0.845zM166.505 1.043l3.908 0.928-6.53 27.49-3.907-0.928z" fill="#ffffff" data-fill-palette-color="primary"></path><path d="M215.113 20.274l3.533 2.23c0.301 0.19 0.512 0.443 0.632 0.757 0.122 0.324 0.14 0.653 0.055 0.99v0l-6.938 27.72-3.601-2.273 6.175-22.976c0.128-0.404 0.253-0.811 0.375-1.219 0.128-0.404 0.242-0.786 0.341-1.145v0l-0.973-0.614c-0.281 0.244-0.577 0.511-0.887 0.801-0.31 0.29-0.634 0.57-0.973 0.841v0l-18.086 15.457-3.567-2.252 22.042-18.186c0.267-0.221 0.573-0.346 0.917-0.376 0.335-0.027 0.654 0.055 0.955 0.245zM202.075 31.268l12.185 7.692-1.815 2.876-12.185-7.692z" fill="#ffffff" data-fill-palette-color="primary"></path><path d="M256.2 57.344l2.581 3.012-20.247 17.344c-0.807 0.692-1.539 0.654-2.196-0.112v0l-2.291-2.674c-0.302-0.353-0.454-0.696-0.457-1.03-0.002-0.344 0.091-0.721 0.28-1.131v0l8.465-19.449c0.256-0.538 0.54-1.158 0.852-1.86 0.321-0.7 0.655-1.309 1-1.826v0l-0.4-0.468c-0.44 0.448-0.894 0.89-1.362 1.326-0.469 0.446-0.951 0.881-1.447 1.306v0l-15.426 13.215-2.613-3.05 20.247-17.345c0.807-0.692 1.548-0.644 2.222 0.143v0l2.212 2.583c0.302 0.353 0.459 0.701 0.47 1.045 0.011 0.354-0.078 0.736-0.267 1.146v0l-8.306 18.875c-0.237 0.602-0.528 1.271-0.871 2.008-0.334 0.738-0.664 1.464-0.991 2.178v0l0.427 0.498c0.527-0.522 1.055-1.028 1.584-1.516 0.534-0.493 1.07-0.969 1.606-1.429v0z" fill="#ffffff" data-fill-palette-color="primary"></path><path d="M277.211 98.07l1.649 4.144-13.782-3.194c-0.448-0.09-0.855-0.203-1.221-0.339-0.357-0.133-0.737-0.297-1.14-0.492v0l-0.075 0.03c-0.174 0.453-0.36 0.896-0.557 1.33-0.193 0.424-0.414 0.806-0.664 1.143v0l-8.601 12.502-1.713-4.304 10.118-14.56zM271.518 83.762l1.5 3.769-8.063 3.208c-0.788 0.313-1.556 0.565-2.307 0.755-0.741 0.194-1.528 0.354-2.36 0.483v0c-0.653 0.434-1.325 0.846-2.016 1.237-0.695 0.4-1.374 0.731-2.037 0.995v0l-9.47 3.768-1.5-3.77zM261.393 90.658l1.995 5.016-2.925 1.164-1.996-5.016z" fill="#ffffff" data-fill-palette-color="primary"></path><path d="M36.878 180.108v0c0.438 1.293 0.875 2.602 1.309 3.925 0.432 1.317 0.855 2.626 1.268 3.928 0.413 1.302 0.762 2.551 1.047 3.748v0l-3.069 0.816-3.444-10.159c-0.302-0.892-0.72-1.475-1.254-1.748-0.533-0.274-1.236-0.263-2.109 0.033v0l-21.531 7.299-1.341-3.956 22.286-7.556c1.58-0.536 2.978-0.466 4.194 0.209 1.21 0.677 2.091 1.831 2.644 3.461zM20.385 180.457l3.087-1.046 4.918 14.507-3.087 1.046z" fill="#ffffff" data-fill-palette-color="primary"></path><path d="M47.387 202.649l2.354 3.39-18.64 12.945c-0.735 0.51-1.151 1.073-1.247 1.689-0.1 0.61 0.11 1.291 0.632 2.042v0l5.877 8.463-2.515 2.004c-1.179-1.45-2.326-2.955-3.442-4.514-1.12-1.565-2.226-3.135-3.32-4.71v0c-1.205-1.735-1.642-3.278-1.311-4.63 0.335-1.346 1.154-2.472 2.458-3.377v0z" fill="#ffffff" data-fill-palette-color="primary"></path><path d="M74.34 230.874v0c1.659 1.319 2.913 2.638 3.763 3.958 0.854 1.315 1.273 2.696 1.257 4.144-0.007 1.447-0.449 3.046-1.326 4.798-0.886 1.753-2.211 3.738-3.973 5.955v0c-1.75 2.201-3.381 3.934-4.893 5.199-1.522 1.266-2.986 2.065-4.394 2.398-1.407 0.343-2.847 0.246-4.32-0.288-1.478-0.53-3.046-1.454-4.706-2.773v0c-1.654-1.314-2.905-2.632-3.755-3.952-0.854-1.315-1.281-2.702-1.28-4.163 0.002-1.451 0.442-3.065 1.321-4.841 0.875-1.771 2.187-3.757 3.937-5.958v0c1.762-2.217 3.405-3.949 4.929-5.196 1.519-1.241 2.986-2.027 4.399-2.356 1.423-0.33 2.871-0.228 4.344 0.308 1.478 0.53 3.044 1.452 4.697 2.767zM72.08 233.718v0c-1.411-1.122-2.749-1.742-4.012-1.861-1.262-0.109-2.568 0.339-3.919 1.345-1.346 1.001-2.919 2.634-4.718 4.899v0c-1.783 2.243-3.017 4.142-3.701 5.695-0.684 1.553-0.831 2.932-0.44 4.136 0.401 1.204 1.307 2.367 2.719 3.489v0c1.417 1.126 2.749 1.742 3.996 1.848 1.252 0.101 2.562-0.353 3.931-1.361 1.369-1.009 2.945-2.635 4.728-4.879v0c1.8-2.265 3.03-4.17 3.692-5.715 0.665-1.551 0.808-2.924 0.426-4.12-0.385-1.191-1.286-2.35-2.702-3.476z" fill="#ffffff" data-fill-palette-color="primary"></path><path d="M123.459 252.355l4.157 1.246-13.312 24.8c-0.174 0.299-0.43 0.521-0.768 0.665-0.332 0.146-0.697 0.16-1.097 0.04v0l-4.311-1.292c-0.4-0.12-0.707-0.335-0.924-0.645-0.209-0.309-0.291-0.646-0.244-1.011v0l1.991-21.441c0.051-0.568 0.107-1.141 0.168-1.72 0.053-0.574 0.104-1.131 0.153-1.671v0l-0.802-0.24c-0.262 0.476-0.521 0.978-0.778 1.505-0.265 0.532-0.525 1.037-0.78 1.514v0l-10.102 19.011c-0.182 0.325-0.448 0.557-0.799 0.698-0.345 0.142-0.704 0.158-1.078 0.046v0l-4.359-1.307c-0.4-0.12-0.704-0.334-0.913-0.643-0.209-0.309-0.295-0.633-0.257-0.972v0l2.525-28.034 4.156 1.246-2.273 22.273c-0.057 0.566-0.132 1.154-0.223 1.766-0.098 0.61-0.188 1.25-0.271 1.921v0l0.88 0.263c0.287-0.581 0.573-1.149 0.858-1.702 0.279-0.556 0.557-1.097 0.835-1.625v0l9.961-18.578c0.17-0.356 0.429-0.612 0.778-0.768 0.349-0.155 0.723-0.173 1.122-0.053v0l4.04 1.211c0.4 0.12 0.696 0.338 0.889 0.656 0.199 0.32 0.281 0.678 0.246 1.075v0l-1.89 20.997c-0.055 0.651-0.12 1.277-0.194 1.88-0.082 0.601-0.181 1.203-0.3 1.807v0l0.996 0.298c0.227-0.571 0.471-1.137 0.73-1.698 0.253-0.563 0.518-1.109 0.796-1.637v0z" fill="#ffffff" data-fill-palette-color="primary"></path><path d="M166.968 249.444v0c2.331-0.549 4.23-0.776 5.698-0.679 1.467 0.097 2.63 0.6 3.487 1.51 0.859 0.917 1.514 2.335 1.966 4.254v0c0.472 2.004 0.459 3.621-0.038 4.851-0.496 1.237-1.564 2.131-3.204 2.683v0l0.039 0.167c2.127-0.301 3.763 0.084 4.907 1.156 1.139 1.079 1.973 2.742 2.502 4.988v0c0.452 1.919 0.499 3.48 0.14 4.684-0.361 1.198-1.156 2.163-2.387 2.895-1.23 0.732-2.926 1.353-5.087 1.862v0c-1.657 0.39-3.073 0.717-4.247 0.98-1.182 0.265-2.28 0.489-3.294 0.673-1.016 0.177-2.076 0.354-3.182 0.532v0l-0.166-3.258c0.602-0.114 1.761-0.36 3.475-0.736 1.709-0.375 3.699-0.83 5.972-1.365v0c1.408-0.332 2.492-0.715 3.253-1.151 0.755-0.434 1.226-1.032 1.413-1.794 0.195-0.758 0.138-1.788-0.169-3.091v0c-0.332-1.408-0.768-2.438-1.309-3.092-0.543-0.66-1.27-1.048-2.182-1.166-0.911-0.11-2.112-0.003-3.605 0.321v0l-9.223 2.173-0.699-2.966 9.184-2.164c1.29-0.332 2.287-0.708 2.989-1.129 0.701-0.428 1.134-1.01 1.299-1.748 0.172-0.739 0.117-1.704-0.164-2.895v0c-0.287-1.218-0.684-2.113-1.193-2.684-0.506-0.565-1.206-0.863-2.097-0.895-0.892-0.032-2.055 0.121-3.49 0.459v0c-1.355 0.319-2.573 0.606-3.653 0.861-1.087 0.256-2.035 0.486-2.844 0.691-0.809 0.204-1.505 0.403-2.089 0.596v0l-1.305-2.989c0.949-0.341 1.861-0.636 2.736-0.883 0.868-0.246 1.821-0.498 2.859-0.757 1.038-0.258 2.274-0.557 3.708-0.894zM157.665 251.978l3.987-0.94 6.604 28.022-3.988 0.94z" fill="#ffffff" data-fill-palette-color="primary"></path><path d="M195.225 237.492l3.605-2.267c0.308-0.193 0.634-0.275 0.978-0.245 0.35 0.026 0.66 0.153 0.931 0.38v0l22.428 18.57-3.673 2.31-18.41-15.781c-0.313-0.296-0.629-0.59-0.948-0.882-0.313-0.296-0.615-0.567-0.905-0.813v0l-0.991 0.623c0.102 0.365 0.216 0.754 0.342 1.168 0.131 0.41 0.248 0.83 0.35 1.258v0l6.253 23.424-3.639 2.288-7.026-28.254c-0.082-0.346-0.062-0.68 0.06-1.004 0.128-0.327 0.343-0.585 0.645-0.775zM199.595 254.317l12.438-7.82 1.842 2.93-12.438 7.82z" fill="#ffffff" data-fill-palette-color="primary"></path><path d="M228.166 207.562l2.639-3.067 20.589 17.721c0.821 0.707 0.896 1.45 0.225 2.23v0l-2.337 2.715c-0.312 0.362-0.637 0.57-0.977 0.624-0.339 0.054-0.731 0.019-1.174-0.105v0l-20.893-5.534c-0.586-0.176-1.256-0.366-2.01-0.572-0.756-0.215-1.42-0.459-1.994-0.731v0l-0.408 0.474c0.525 0.381 1.043 0.773 1.555 1.179 0.517 0.4 1.027 0.818 1.532 1.252v0l15.686 13.501-2.672 3.105-20.589-17.72c-0.821-0.707-0.887-1.46-0.198-2.261v0l2.264-2.631c0.307-0.357 0.635-0.567 0.983-0.632 0.353-0.069 0.751-0.042 1.194 0.083v0l20.287 5.464c0.641 0.152 1.361 0.342 2.16 0.568 0.794 0.222 1.574 0.445 2.34 0.67v0l0.441-0.513c-0.611-0.446-1.203-0.897-1.776-1.355-0.578-0.462-1.14-0.928-1.685-1.398v0z" fill="#ffffff" data-fill-palette-color="primary"></path><path d="M242.922 177.231l1.692-4.225 7.94 12.039c0.27 0.376 0.493 0.741 0.67 1.095 0.168 0.357 0.332 0.745 0.49 1.164v0l0.085 0.034c0.441-0.215 0.885-0.41 1.332-0.586 0.45-0.182 0.881-0.31 1.295-0.384v0l15.131-3.201-1.756 4.384-17.692 3.653zM237.088 191.797l1.538-3.84 8.215 3.29c0.799 0.32 1.542 0.672 2.23 1.056 0.683 0.375 1.376 0.808 2.077 1.299v0c0.787 0.134 1.575 0.301 2.365 0.502 0.792 0.194 1.522 0.425 2.19 0.692v0l9.648 3.865-1.538 3.84zM249.404 193.806l2.048-5.115 2.988 1.197-2.048 5.115z" fill="#ffffff" data-fill-palette-color="primary"></path><path d="M1.14 144.424c0-6.074 4.924-10.998 10.998-10.998 6.074 0 10.998 4.924 10.997 10.998 0 6.074-4.924 10.998-10.997 10.997-6.074 0-10.998-4.924-10.998-10.997z" fill="#ffffff" data-fill-palette-color="primary"></path><path d="M255.437 144.424c0-6.074 4.924-10.998 10.997-10.998 6.074 0 10.998 4.924 10.998 10.998 0 6.074-4.924 10.998-10.998 10.997-6.074 0-10.998-4.924-10.997-10.997z" fill="#ffffff" data-fill-palette-color="primary"></path></g></svg></g></svg></g></svg></g></svg></g><defs></defs></svg><rect width="280" height="280" fill="none" stroke="none" visibility="hidden"></rect></g></svg></g></svg>